HIERARCHY
ROOT Hips
{
  OFFSET 0.0000 0.0000 0.0000
  CHANNELS 6 Xposition Yposition Zposition Zrotation Xrotation Yrotation
  JOINT LeftHip
  {
    OFFSET 5.5000 -0.0000 -0.0000
    CHANNELS 3 Zrotation Xrotation Yrotation
    JOINT LeftKnee
    {
      OFFSET 0.0000 -17.5000 0.0000
      CHANNELS 3 Zrotation Xrotation Yrotation
      JOINT LeftAnkle
      {
        OFFSET 0.0000 -17.0000 0.0000
        CHANNELS 3 Zrotation Xrotation Yrotation
        End Site
        {
            OFFSET 0.0000 -4.7000 -2.0000
        }
      }
    }
  }
  JOINT RightHip
  {
    OFFSET -5.5000 -0.0000 0.0000
    CHANNELS 3 Zrotation Xrotation Yrotation
    JOINT RightKnee
    {
      OFFSET 0.0000 -17.5000 0.0000
      CHANNELS 3 Zrotation Xrotation Yrotation
      JOINT RightAnkle
      {
        OFFSET 0.0000 -17.0000 0.0000
        CHANNELS 3 Zrotation Xrotation Yrotation
        End Site
        {
            OFFSET 0.0000 -4.7000 -2.0000
        }
      }
    }
  }
  JOINT Chest
  {
    OFFSET -0.0000 3.0000 -1.0000
    CHANNELS 3 Zrotation Xrotation Yrotation
    JOINT LeftCollar
    {
      OFFSET 0.0000 18.0000 1.0000
      CHANNELS 3 Zrotation Xrotation Yrotation
      JOINT LeftShoulder
      {
        OFFSET 6.5000 0.0000 0.0000
        CHANNELS 3 Zrotation Xrotation Yrotation
        JOINT LeftElbow
        {
          OFFSET -0.0000 -11.0000 0.0000
          CHANNELS 3 Zrotation Xrotation Yrotation
          JOINT LeftWrist
          {
            OFFSET 0.0000 -10.5000 0.0000
            CHANNELS 3 Zrotation Xrotation Yrotation
            End Site
            {
                OFFSET 0.0000 -6.0000 0.0000
            }
          }
        }
      }
    }
    JOINT RightCollar
    {
      OFFSET 0.0000 18.0000 1.0000
      CHANNELS 3 Zrotation Xrotation Yrotation
      JOINT RightShoulder
      {
        OFFSET -6.5000 0.0000 0.0000
        CHANNELS 3 Zrotation Xrotation Yrotation
        JOINT RightElbow
        {
          OFFSET 0.0000 -11.0000 0.0000
          CHANNELS 3 Zrotation Xrotation Yrotation
          JOINT RightWrist
          {
            OFFSET -0.0000 -10.5000 0.0000
            CHANNELS 3 Zrotation Xrotation Yrotation
            End Site
            {
                OFFSET -0.0000 -6.0000 0.0000
            }
          }
        }
      }
    }
    JOINT Neck
    {
      OFFSET 0.0000 18.0000 1.0000
      CHANNELS 3 Zrotation Xrotation Yrotation
      JOINT Head
      {
        OFFSET -0.0000 3.0000 0.0000
        CHANNELS 3 Zrotation Xrotation Yrotation
        End Site
        {
            OFFSET 0.0000 7.0000 0.0000
        }
      }
    }
  }
}
MOTION
Frames:	35
Frame Time:	0.033333
-2.2682 38.8782 27.3201 5.06 1.90 73.16 -12.70 9.69 10.38 0.00 13.71 1.58 10.86 -7.83 -15.27 3.32 -10.97 8.23 -0.00 8.45 0.73 -4.30 7.64 -46.13 -1.74 8.36 18.59 0.00 0.00 0.00 21.67 42.85 35.93 -180.00 -74.77 -176.30 -53.59 8.71 -10.88 0.00 0.00 0.00 -28.67 30.90 -39.34 -0.00 -67.20 -4.03 -23.06 20.57 24.65 0.00 0.00 0.00 -13.19 19.13 17.13 
-2.7573 38.9566 27.6766 4.48 1.81 83.37 -11.61 10.29 11.27 0.00 13.75 1.36 11.54 -7.32 -12.99 1.70 -10.24 8.13 -0.00 8.59 0.38 -1.92 6.33 -45.86 -1.03 8.42 20.19 0.00 0.00 0.00 22.62 42.82 34.24 -180.00 -74.82 -176.38 -52.33 5.03 -5.53 0.00 0.00 0.00 -26.88 30.63 -38.97 0.00 -68.30 -3.73 -22.55 18.64 24.21 0.00 0.00 0.00 -12.40 18.21 18.08 
-3.2604 39.0444 27.9488 3.95 1.97 93.83 -10.68 10.04 12.53 0.00 14.07 1.39 12.03 -6.63 -10.36 0.30 -9.52 8.35 0.00 8.60 0.34 0.01 5.13 -45.16 -0.72 8.48 21.33 0.00 0.00 0.00 23.45 43.15 33.06 -180.00 -75.10 -176.69 -51.23 2.14 -1.72 0.00 0.00 0.00 -25.92 30.75 -38.19 -0.00 -69.10 -3.36 -21.65 17.22 23.31 0.00 0.00 0.00 -12.55 17.66 19.26 
-3.2043 39.1968 27.7501 3.27 2.23 105.78 -8.59 9.21 15.96 -0.00 14.48 2.48 11.77 -6.08 -9.35 -1.01 -8.02 9.86 0.00 8.85 0.88 1.81 2.77 -45.46 -0.74 8.60 23.37 0.00 0.00 0.00 23.73 44.34 33.23 180.00 -75.58 -177.12 -51.45 -0.07 -1.43 0.00 0.00 0.00 -26.38 31.48 -36.18 -0.00 -69.56 -2.72 -21.19 17.43 21.28 0.00 0.00 0.00 -13.43 17.11 21.50 
-3.2093 39.2319 27.3934 2.73 2.12 116.57 -7.46 8.72 17.68 0.00 14.06 2.09 9.74 -6.04 -5.43 -1.88 -6.61 9.48 -0.00 9.20 0.25 2.82 0.45 -42.20 -0.38 8.55 22.83 0.00 0.00 0.00 25.09 44.59 33.97 -180.00 -75.76 -177.39 -49.55 0.71 0.11 0.00 0.00 0.00 -26.40 33.23 -35.44 -0.00 -69.49 -2.28 -18.50 14.73 20.22 0.00 0.00 0.00 -13.64 17.01 21.81 
-3.1711 39.2136 27.4244 2.35 1.90 127.06 -6.58 8.46 19.01 0.00 13.40 1.70 5.96 -7.44 -2.20 -2.15 -5.22 9.04 0.00 9.66 -0.07 3.32 -1.83 -38.54 -0.05 8.40 22.24 0.00 0.00 0.00 25.03 44.62 37.54 180.00 -76.03 -177.40 -47.95 2.40 -0.14 0.00 0.00 0.00 -27.31 34.67 -33.60 -0.00 -69.19 -1.92 -16.34 13.60 19.45 0.00 0.00 0.00 -14.10 16.67 22.76 
-3.0351 39.1754 27.8611 2.06 1.68 136.92 -6.18 8.02 19.61 -0.00 12.83 1.12 4.33 -9.18 0.94 -2.18 -4.17 9.00 -0.00 10.06 -0.05 3.58 -3.72 -35.32 0.20 8.31 21.19 0.00 0.00 0.00 24.97 44.47 41.28 -180.00 -76.35 -177.29 -45.22 4.34 -0.47 0.00 0.00 0.00 -28.01 36.60 -31.96 -0.00 -68.16 -1.76 -14.26 12.75 19.92 0.00 0.00 0.00 -14.31 16.64 23.55 
-2.7092 39.2220 28.4359 1.51 1.68 146.42 -5.28 6.47 19.88 -0.00 12.97 0.73 3.62 -9.67 2.31 -2.39 -3.09 9.19 -0.00 10.48 0.07 3.54 -5.64 -33.24 0.05 8.25 20.46 0.00 0.00 0.00 24.57 44.18 45.29 180.00 -76.79 -177.13 -42.36 5.77 -0.85 0.00 0.00 0.00 -28.76 38.77 -30.38 0.00 -66.39 -1.71 -13.10 12.29 21.46 0.00 0.00 0.00 -14.63 16.34 24.21 
-2.5908 39.2960 29.0997 0.67 1.62 157.23 -4.08 4.28 21.25 -0.00 13.17 1.03 2.98 -9.13 -1.21 -2.62 -1.49 10.54 -0.00 10.80 0.64 3.10 -8.10 -34.01 -0.54 8.33 21.65 0.00 0.00 0.00 23.26 44.37 50.67 -180.00 -77.49 -177.09 -41.08 4.96 -1.89 0.00 0.00 0.00 -30.42 41.21 -27.73 0.00 -64.26 -1.55 -13.58 13.69 21.68 0.00 0.00 0.00 -15.27 15.99 25.60 
-2.7859 39.4201 29.9868 0.12 1.26 167.31 -3.16 1.91 21.20 0.00 12.90 0.47 3.12 -7.75 -4.40 -3.01 0.02 10.53 0.00 11.16 0.26 5.05 -9.51 -33.05 -0.71 8.37 21.32 0.00 0.00 0.00 24.34 44.63 53.05 -180.00 -77.88 -177.36 -38.11 5.47 -0.03 0.00 0.00 0.00 -30.79 44.08 -28.78 -0.00 -62.61 -2.00 -12.73 12.97 23.68 0.00 0.00 0.00 -15.07 16.25 24.97 
-2.7839 39.5521 30.8522 -0.19 0.76 176.71 -2.68 -0.77 20.57 -0.00 12.67 -0.08 3.73 -5.68 -7.07 -3.04 1.15 9.89 0.00 11.52 -0.18 5.33 -10.41 -31.77 -0.56 8.43 20.46 0.00 0.00 0.00 25.31 44.80 54.69 180.00 -78.69 -177.33 -35.21 6.69 1.71 0.00 0.00 0.00 -31.69 45.71 -30.45 0.00 -61.55 -2.49 -12.39 12.61 25.95 0.00 0.00 0.00 -14.50 16.42 24.18 
-2.5179 39.5515 31.2078 -0.45 0.21 -174.22 -2.61 -2.70 19.97 0.00 12.65 -0.31 4.14 -4.81 -9.38 -2.62 1.99 9.26 0.00 11.71 -0.34 4.43 -10.87 -30.99 -0.55 8.51 20.34 0.00 0.00 0.00 25.15 46.16 56.74 -180.00 -79.80 -177.54 -33.46 6.77 2.58 0.00 0.00 0.00 -34.78 45.79 -30.28 0.00 -60.96 -2.66 -12.63 13.86 27.18 0.00 0.00 0.00 -13.67 16.64 24.33 
-2.2492 39.5147 31.4260 -0.48 -0.29 -165.94 -2.82 -4.43 18.79 0.00 12.77 -0.68 4.57 -4.34 -9.79 -2.26 2.65 8.23 0.00 11.74 -0.60 3.69 -11.24 -30.06 -0.54 8.55 20.32 0.00 0.00 0.00 24.93 47.63 58.61 -180.00 -80.96 -177.61 -31.97 7.67 2.89 0.00 0.00 0.00 -37.82 44.57 -29.52 0.00 -60.68 -2.82 -13.46 14.86 28.63 0.00 0.00 0.00 -12.12 16.71 24.37 
-2.0155 39.4680 31.4169 -0.16 -0.67 -157.88 -3.16 -5.71 17.99 0.00 12.78 -0.66 5.05 -4.52 -9.48 -1.79 3.69 7.49 -0.00 11.94 -0.58 3.36 -11.95 -30.24 -0.53 8.59 20.81 0.00 0.00 0.00 24.13 49.36 60.42 180.00 -82.03 -177.63 -30.73 8.33 2.16 0.00 0.00 0.00 -41.47 42.43 -28.64 -0.00 -60.50 -2.91 -14.28 16.02 29.81 0.00 0.00 0.00 -10.73 16.79 24.38 
-1.7688 39.4178 31.3519 0.26 -0.90 -150.51 -3.41 -6.73 16.99 0.00 12.68 -0.73 5.35 -4.79 -8.08 -1.30 4.70 6.48 0.00 12.02 -0.68 3.20 -12.36 -30.47 -0.40 8.62 20.95 0.00 0.00 0.00 22.81 50.82 62.36 180.00 -83.01 -177.46 -29.53 9.72 0.98 0.00 0.00 0.00 -44.49 39.67 -28.92 -0.00 -60.45 -3.21 -15.30 16.06 31.38 0.00 0.00 0.00 -9.26 16.57 23.57 
-1.4190 39.3428 31.3441 0.52 -1.07 -143.75 -3.76 -7.77 15.96 -0.00 12.49 -0.78 5.61 -4.79 -6.40 -0.66 6.15 4.63 -0.00 12.00 -1.08 2.76 -12.66 -29.78 -0.23 8.55 20.79 0.00 0.00 0.00 20.88 52.47 63.98 180.00 -83.81 -177.44 -28.19 11.20 -0.21 0.00 0.00 0.00 -46.54 36.50 -31.07 -0.00 -60.41 -3.95 -16.65 15.12 33.47 0.00 0.00 0.00 -8.10 16.24 22.04 
-1.2511 39.2608 30.9564 0.71 -1.22 -136.55 -4.41 -8.36 15.83 0.00 12.40 -0.38 6.06 -5.13 -4.97 -0.15 6.89 3.72 0.00 11.98 -0.85 2.45 -12.27 -30.02 -0.13 8.53 21.50 0.00 0.00 0.00 17.73 53.81 66.34 -180.00 -84.40 -177.26 -27.74 11.54 -1.64 0.00 0.00 0.00 -47.35 32.52 -34.15 -0.00 -61.00 -4.98 -19.87 14.89 34.50 0.00 0.00 0.00 -6.83 16.13 20.55 
-1.0703 39.1569 30.3246 0.79 -1.29 -129.91 -4.90 -8.66 15.21 -0.00 12.50 -0.41 6.26 -6.00 -1.70 0.40 7.60 2.74 0.00 11.89 -0.77 1.76 -11.91 -30.47 -0.03 8.42 21.42 0.00 0.00 0.00 16.08 54.43 66.83 -180.00 -84.51 -177.04 -26.87 13.20 -1.63 0.00 0.00 0.00 -46.43 30.29 -38.49 -0.00 -62.25 -5.66 -22.21 12.51 33.56 0.00 0.00 0.00 -5.32 16.16 18.28 
-1.1127 39.1176 29.4257 0.93 -1.26 -123.27 -5.07 -8.67 14.92 0.00 12.58 -0.28 6.30 -6.68 2.21 0.89 8.51 2.22 0.00 11.93 -0.54 2.08 -11.77 -31.55 0.01 8.39 21.58 0.00 0.00 0.00 14.74 54.59 65.51 -180.00 -84.59 -176.68 -26.12 14.28 -1.13 0.00 0.00 0.00 -44.63 28.81 -43.10 0.00 -65.33 -5.97 -24.83 10.19 31.11 0.00 0.00 0.00 -3.71 15.65 16.14 
-1.7563 39.1638 28.4497 1.10 -1.05 -116.85 -5.07 -7.89 14.61 0.00 12.61 -0.22 6.17 -7.38 6.45 1.33 9.25 1.45 -0.00 12.19 -0.55 4.03 -12.11 -31.20 0.16 8.27 21.43 0.00 0.00 0.00 14.07 53.88 61.47 180.00 -84.64 -176.23 -24.84 15.77 -0.44 0.00 0.00 0.00 -42.22 27.71 -47.62 -0.00 -69.79 -5.99 -26.59 7.32 27.85 0.00 0.00 0.00 -2.22 15.00 13.65 
-2.6590 39.2287 27.7104 1.16 -0.74 -110.41 -4.83 -6.44 14.52 0.00 12.39 -0.08 5.71 -8.29 8.59 1.22 10.80 1.19 -0.00 12.97 -0.42 7.23 -13.47 -29.72 0.19 8.04 21.32 0.00 0.00 0.00 13.34 52.79 56.16 -180.00 -84.61 -175.88 -23.56 16.68 -0.05 0.00 0.00 0.00 -40.16 25.99 -47.68 -0.00 -74.69 -5.77 -28.57 5.45 24.79 0.00 0.00 0.00 -0.73 13.63 11.06 
-3.0600 39.3310 27.6063 1.12 -0.19 -103.35 -4.63 -5.86 15.07 -0.00 11.92 0.25 5.70 -7.86 7.41 1.13 11.37 1.59 0.00 14.49 -0.09 9.91 -13.62 -28.23 -0.01 7.72 21.80 0.00 0.00 0.00 11.99 51.79 51.05 -180.00 -84.63 -175.74 -22.79 16.30 -0.39 0.00 0.00 0.00 -39.38 23.25 -40.89 0.00 -80.18 -5.49 -31.47 6.59 23.15 0.00 0.00 0.00 0.55 11.43 8.63 
-3.0810 39.3754 27.5571 0.80 0.37 -96.28 -4.25 -5.55 15.35 -0.00 11.45 0.26 5.81 -7.82 3.87 1.91 11.72 1.55 -0.00 16.96 -0.03 11.19 -12.75 -25.77 -0.16 7.35 21.40 0.00 0.00 0.00 11.72 51.10 44.80 180.00 -84.61 -175.74 -21.87 16.32 0.15 0.00 0.00 0.00 -39.41 21.01 -30.53 0.00 -85.14 -5.15 -32.42 7.08 23.38 0.00 0.00 0.00 2.15 9.56 5.01 
-3.0815 39.5684 27.4713 0.26 1.32 -88.45 -3.38 -5.16 15.99 -0.00 10.87 0.43 5.84 -7.49 -1.60 2.63 8.00 4.67 -0.00 25.58 1.16 13.60 -11.75 -25.26 0.45 7.07 20.84 0.00 0.00 0.00 10.77 50.58 39.21 -180.00 -84.12 -175.70 -21.85 15.97 0.15 0.00 0.00 0.00 -40.42 18.36 -16.87 0.00 -89.06 -4.85 -33.24 7.05 26.98 0.00 0.00 0.00 3.18 7.87 1.39 
-3.2271 39.5943 26.9472 -0.45 1.08 -80.89 -2.92 -4.87 15.71 -0.00 10.73 0.11 5.32 -6.86 -5.97 2.31 3.36 7.70 0.00 35.96 1.19 17.14 -11.09 -22.87 0.64 6.92 19.82 0.00 0.00 0.00 10.28 50.41 35.37 -180.00 -83.16 -175.89 -22.90 15.73 1.10 0.00 0.00 0.00 -41.86 16.38 -5.16 180.00 -89.62 175.81 -32.01 5.43 30.61 0.00 0.00 0.00 3.76 7.44 -1.84 
-3.3962 39.5172 26.4732 -0.99 0.25 -73.94 -2.85 -4.73 14.24 -0.00 10.80 -0.58 4.73 -6.12 -9.45 1.26 -0.99 9.09 -0.00 47.11 0.32 20.70 -11.97 -19.71 0.33 6.98 18.51 0.00 0.00 0.00 10.14 50.81 32.88 180.00 -82.32 -176.20 -24.18 14.88 2.42 0.00 0.00 0.00 -43.42 15.69 5.46 -0.00 -88.21 -3.23 -29.40 1.71 33.90 0.00 0.00 0.00 4.24 7.06 -4.28 
-3.4579 39.4730 26.1011 -1.46 -0.31 -66.91 -2.68 -4.91 12.67 -0.00 10.86 -0.94 4.39 -5.19 -13.99 -0.90 -2.83 10.03 0.00 54.34 -0.58 22.20 -13.54 -20.84 -0.32 7.16 18.15 0.00 0.00 0.00 9.24 50.81 32.93 -180.00 -81.75 -176.21 -26.17 13.78 2.27 0.00 0.00 0.00 -45.21 15.76 14.03 0.00 -81.41 -2.07 -26.00 -1.27 36.72 0.00 0.00 0.00 5.24 7.93 -5.34 
-3.6504 39.5735 25.5422 -2.14 -0.05 -59.49 -1.31 -5.28 11.24 0.00 10.71 -1.04 3.79 -4.08 -19.26 -3.18 -3.48 10.33 -0.00 52.33 -1.24 20.61 -10.34 -26.46 -0.84 7.34 18.56 0.00 0.00 0.00 8.21 50.65 34.67 -180.00 -81.66 -176.12 -28.34 13.38 1.06 0.00 0.00 0.00 -46.86 16.01 20.02 0.00 -70.24 -1.00 -20.83 -1.03 38.73 0.00 0.00 0.00 7.33 8.76 -5.49 
-3.9848 39.7061 25.0248 -2.95 0.41 -53.41 0.19 -5.63 9.23 0.00 10.60 -1.36 3.19 -3.17 -22.15 -4.47 -2.40 8.65 -0.00 45.49 -1.77 17.54 -5.31 -30.82 -0.84 7.51 17.96 0.00 0.00 0.00 8.58 50.47 36.72 180.00 -81.35 -176.25 -29.52 14.15 1.88 0.00 0.00 0.00 -47.54 15.76 22.88 0.00 -60.07 -0.78 -14.22 0.93 43.25 0.00 0.00 0.00 9.25 10.46 -5.78 
-4.2317 39.8067 24.6676 -3.73 0.84 -48.37 1.42 -6.14 7.21 -0.00 10.56 -1.52 2.78 -2.39 -24.33 -6.06 -1.09 7.03 0.00 36.83 -1.94 15.39 0.16 -33.16 -0.79 7.70 17.43 0.00 0.00 0.00 8.31 50.65 40.68 180.00 -81.03 -176.47 -30.30 14.38 2.60 0.00 0.00 0.00 -48.12 14.47 24.33 0.00 -50.19 -0.84 -8.52 4.35 48.66 0.00 0.00 0.00 10.87 9.93 -5.31 
-4.3748 39.8184 24.2480 -4.40 1.03 -43.95 2.44 -6.97 5.73 0.00 10.67 -1.36 2.39 -1.51 -26.32 -7.86 0.46 5.63 -0.00 28.32 -1.89 14.48 5.04 -33.74 -0.98 7.80 17.25 0.00 0.00 0.00 8.16 50.83 44.71 180.00 -80.75 -176.70 -30.69 14.51 3.18 0.00 0.00 0.00 -48.65 12.51 24.44 0.00 -40.47 -1.15 -4.67 7.57 54.15 0.00 0.00 0.00 11.87 9.68 -4.68 
-4.5340 39.7251 23.5149 -4.82 0.94 -40.09 3.44 -8.25 4.37 -0.00 10.85 -1.23 1.66 -0.27 -28.14 -9.35 1.41 4.68 0.00 21.53 -1.55 14.77 8.73 -33.54 -1.28 7.90 16.88 0.00 0.00 0.00 8.61 50.98 47.16 -180.00 -80.56 -176.83 -30.33 15.00 4.02 0.00 0.00 0.00 -49.33 10.89 21.43 0.00 -31.97 -2.39 -3.12 9.76 60.47 0.00 0.00 0.00 12.25 9.19 -4.55 
-4.7078 39.5956 22.8279 -5.23 0.79 -36.36 4.37 -9.81 3.67 -0.00 11.49 -0.85 1.08 0.75 -30.76 -10.44 0.82 4.15 0.00 17.21 -1.11 15.88 11.83 -32.66 -1.58 7.99 16.60 0.00 0.00 0.00 9.24 50.61 48.65 -180.00 -80.60 -176.65 -29.81 15.91 4.20 0.00 0.00 0.00 -50.26 9.65 14.28 0.00 -26.50 -4.69 -4.75 11.65 67.29 0.00 0.00 0.00 12.29 9.27 -4.52 
-5.1657 39.4253 22.0445 -5.62 0.60 -32.90 5.62 -11.77 3.41 0.00 13.27 -0.41 0.27 1.06 -32.74 -10.92 0.33 3.61 0.00 14.37 -0.80 16.37 14.82 -30.21 -1.87 8.08 16.18 0.00 0.00 0.00 10.17 49.64 49.07 180.00 -80.71 -176.32 -29.08 17.32 3.96 0.00 0.00 0.00 -51.28 8.98 2.68 -0.00 -25.30 -7.58 -8.06 12.46 74.46 0.00 0.00 0.00 12.40 9.89 -4.68 
-5.9402 39.1739 21.3320 -5.87 0.17 -29.79 6.89 -14.01 3.14 0.00 16.63 -0.12 -0.80 0.21 -31.40 -10.64 1.68 3.08 -0.00 13.28 -0.62 15.51 15.84 -27.14 -2.04 8.12 15.72 0.00 0.00 0.00 11.27 48.81 49.12 -180.00 -80.60 -176.21 -28.71 18.53 3.70 0.00 0.00 0.00 -51.98 8.70 -10.12 -0.00 -28.16 -9.33 -11.53 12.20 79.68 0.00 0.00 0.00 12.74 10.92 -4.93 
